<mxfile host="www.draw.io" modified="2020-03-24T17:38:37.695Z" agent="Mozilla/5.0 (Windows NT 10.0; Win64; x64) AppleWebKit/537.36 (KHTML, like Gecko) Chrome/80.0.3987.149 Safari/537.36" etag="UACaLqaYDkzVgwh7RbXb" version="12.8.8" type="github">
  <diagram id="qC3CdLKqLK-RwKCRt-ci" name="Page-1">
    <mxGraphModel dx="1662" dy="794" grid="1" gridSize="10" guides="1" tooltips="1" connect="1" arrows="1" fold="1" page="1" pageScale="1" pageWidth="827" pageHeight="1169" math="0" shadow="0">
      <root>
        <mxCell id="0" />
        <mxCell id="1" parent="0" />
        <mxCell id="HuGAQ2az-uX-GAvsGOpm-95" value="Switch 1" style="shape=cube;whiteSpace=wrap;html=1;boundedLbl=1;backgroundOutline=1;darkOpacity=0.05;darkOpacity2=0.1;direction=east;" vertex="1" parent="1">
          <mxGeometry x="388" y="460" width="114" height="40" as="geometry" />
        </mxCell>
        <mxCell id="HuGAQ2az-uX-GAvsGOpm-37" value="" style="rounded=1;whiteSpace=wrap;html=1;" vertex="1" parent="1">
          <mxGeometry x="75" y="260" width="120" height="160" as="geometry" />
        </mxCell>
        <mxCell id="HuGAQ2az-uX-GAvsGOpm-38" value="&lt;font style=&quot;font-size: 14px&quot;&gt;Ufficio direttore&lt;/font&gt;" style="text;html=1;strokeColor=none;fillColor=none;align=center;verticalAlign=middle;whiteSpace=wrap;rounded=0;" vertex="1" parent="1">
          <mxGeometry x="75" y="230" width="120" height="20" as="geometry" />
        </mxCell>
        <mxCell id="HuGAQ2az-uX-GAvsGOpm-39" value="PC1" style="text;html=1;strokeColor=none;fillColor=none;align=center;verticalAlign=middle;whiteSpace=wrap;rounded=0;" vertex="1" parent="1">
          <mxGeometry x="115" y="290" width="40" height="20" as="geometry" />
        </mxCell>
        <mxCell id="HuGAQ2az-uX-GAvsGOpm-40" value="PC2" style="text;html=1;strokeColor=none;fillColor=none;align=center;verticalAlign=middle;whiteSpace=wrap;rounded=0;" vertex="1" parent="1">
          <mxGeometry x="115" y="370" width="40" height="20" as="geometry" />
        </mxCell>
        <mxCell id="HuGAQ2az-uX-GAvsGOpm-41" value="" style="rounded=1;whiteSpace=wrap;html=1;" vertex="1" parent="1">
          <mxGeometry x="75" y="690" width="120" height="160" as="geometry" />
        </mxCell>
        <mxCell id="HuGAQ2az-uX-GAvsGOpm-42" value="&lt;font style=&quot;font-size: 14px&quot;&gt;Ufficio redattori&lt;/font&gt;" style="text;html=1;strokeColor=none;fillColor=none;align=center;verticalAlign=middle;whiteSpace=wrap;rounded=0;" vertex="1" parent="1">
          <mxGeometry x="75" y="660" width="120" height="20" as="geometry" />
        </mxCell>
        <mxCell id="HuGAQ2az-uX-GAvsGOpm-43" value="PC5" style="text;html=1;strokeColor=none;fillColor=none;align=center;verticalAlign=middle;whiteSpace=wrap;rounded=0;" vertex="1" parent="1">
          <mxGeometry x="115" y="720" width="40" height="20" as="geometry" />
        </mxCell>
        <mxCell id="HuGAQ2az-uX-GAvsGOpm-44" value="PC6" style="text;html=1;strokeColor=none;fillColor=none;align=center;verticalAlign=middle;whiteSpace=wrap;rounded=0;" vertex="1" parent="1">
          <mxGeometry x="115" y="810" width="40" height="20" as="geometry" />
        </mxCell>
        <mxCell id="HuGAQ2az-uX-GAvsGOpm-45" value="" style="rounded=1;whiteSpace=wrap;html=1;" vertex="1" parent="1">
          <mxGeometry x="75" y="470" width="120" height="160" as="geometry" />
        </mxCell>
        <mxCell id="HuGAQ2az-uX-GAvsGOpm-46" value="&lt;font style=&quot;font-size: 14px&quot;&gt;Ufficio amministrativo&lt;/font&gt;" style="text;html=1;strokeColor=none;fillColor=none;align=center;verticalAlign=middle;whiteSpace=wrap;rounded=0;" vertex="1" parent="1">
          <mxGeometry x="60" y="440" width="150" height="20" as="geometry" />
        </mxCell>
        <mxCell id="HuGAQ2az-uX-GAvsGOpm-47" value="PC3" style="text;html=1;strokeColor=none;fillColor=none;align=center;verticalAlign=middle;whiteSpace=wrap;rounded=0;" vertex="1" parent="1">
          <mxGeometry x="115" y="500" width="40" height="20" as="geometry" />
        </mxCell>
        <mxCell id="HuGAQ2az-uX-GAvsGOpm-48" value="PC4" style="text;html=1;strokeColor=none;fillColor=none;align=center;verticalAlign=middle;whiteSpace=wrap;rounded=0;" vertex="1" parent="1">
          <mxGeometry x="90" y="580" width="40" height="20" as="geometry" />
        </mxCell>
        <mxCell id="HuGAQ2az-uX-GAvsGOpm-49" value="" style="rounded=1;whiteSpace=wrap;html=1;" vertex="1" parent="1">
          <mxGeometry x="655" y="260" width="120" height="160" as="geometry" />
        </mxCell>
        <mxCell id="HuGAQ2az-uX-GAvsGOpm-50" value="&lt;font style=&quot;font-size: 14px&quot;&gt;Stanza server&lt;/font&gt;" style="text;html=1;strokeColor=none;fillColor=none;align=center;verticalAlign=middle;whiteSpace=wrap;rounded=0;" vertex="1" parent="1">
          <mxGeometry x="655" y="230" width="120" height="20" as="geometry" />
        </mxCell>
        <mxCell id="HuGAQ2az-uX-GAvsGOpm-51" value="S1" style="text;html=1;strokeColor=none;fillColor=none;align=center;verticalAlign=middle;whiteSpace=wrap;rounded=0;" vertex="1" parent="1">
          <mxGeometry x="695" y="290" width="40" height="20" as="geometry" />
        </mxCell>
        <mxCell id="HuGAQ2az-uX-GAvsGOpm-52" value="" style="rounded=1;whiteSpace=wrap;html=1;" vertex="1" parent="1">
          <mxGeometry x="630" y="690" width="160" height="160" as="geometry" />
        </mxCell>
        <mxCell id="HuGAQ2az-uX-GAvsGOpm-53" value="&lt;font style=&quot;font-size: 14px&quot;&gt;Ufficio programmatori&lt;/font&gt;" style="text;html=1;strokeColor=none;fillColor=none;align=center;verticalAlign=middle;whiteSpace=wrap;rounded=0;" vertex="1" parent="1">
          <mxGeometry x="640" y="660" width="150" height="20" as="geometry" />
        </mxCell>
        <mxCell id="HuGAQ2az-uX-GAvsGOpm-54" value="PC12" style="text;html=1;strokeColor=none;fillColor=none;align=center;verticalAlign=middle;whiteSpace=wrap;rounded=0;" vertex="1" parent="1">
          <mxGeometry x="630" y="710" width="40" height="20" as="geometry" />
        </mxCell>
        <mxCell id="HuGAQ2az-uX-GAvsGOpm-55" value="PC13" style="text;html=1;strokeColor=none;fillColor=none;align=center;verticalAlign=middle;whiteSpace=wrap;rounded=0;" vertex="1" parent="1">
          <mxGeometry x="670" y="710" width="40" height="20" as="geometry" />
        </mxCell>
        <mxCell id="HuGAQ2az-uX-GAvsGOpm-56" value="PC14" style="text;html=1;strokeColor=none;fillColor=none;align=center;verticalAlign=middle;whiteSpace=wrap;rounded=0;" vertex="1" parent="1">
          <mxGeometry x="710" y="710" width="40" height="20" as="geometry" />
        </mxCell>
        <mxCell id="HuGAQ2az-uX-GAvsGOpm-57" value="PC15" style="text;html=1;strokeColor=none;fillColor=none;align=center;verticalAlign=middle;whiteSpace=wrap;rounded=0;" vertex="1" parent="1">
          <mxGeometry x="750" y="710" width="40" height="20" as="geometry" />
        </mxCell>
        <mxCell id="HuGAQ2az-uX-GAvsGOpm-58" value="PC16" style="text;html=1;strokeColor=none;fillColor=none;align=center;verticalAlign=middle;whiteSpace=wrap;rounded=0;" vertex="1" parent="1">
          <mxGeometry x="650" y="790" width="40" height="20" as="geometry" />
        </mxCell>
        <mxCell id="HuGAQ2az-uX-GAvsGOpm-59" value="PC17" style="text;html=1;strokeColor=none;fillColor=none;align=center;verticalAlign=middle;whiteSpace=wrap;rounded=0;" vertex="1" parent="1">
          <mxGeometry x="695" y="790" width="40" height="20" as="geometry" />
        </mxCell>
        <mxCell id="HuGAQ2az-uX-GAvsGOpm-60" value="PC18" style="text;html=1;strokeColor=none;fillColor=none;align=center;verticalAlign=middle;whiteSpace=wrap;rounded=0;" vertex="1" parent="1">
          <mxGeometry x="740" y="790" width="40" height="20" as="geometry" />
        </mxCell>
        <mxCell id="HuGAQ2az-uX-GAvsGOpm-61" style="edgeStyle=orthogonalEdgeStyle;rounded=0;orthogonalLoop=1;jettySize=auto;html=1;exitX=0.5;exitY=1;exitDx=0;exitDy=0;" edge="1" parent="1" source="HuGAQ2az-uX-GAvsGOpm-55" target="HuGAQ2az-uX-GAvsGOpm-55">
          <mxGeometry relative="1" as="geometry" />
        </mxCell>
        <mxCell id="HuGAQ2az-uX-GAvsGOpm-62" value="" style="rounded=1;whiteSpace=wrap;html=1;" vertex="1" parent="1">
          <mxGeometry x="650" y="470" width="130" height="160" as="geometry" />
        </mxCell>
        <mxCell id="HuGAQ2az-uX-GAvsGOpm-63" value="&lt;span style=&quot;font-size: 14px&quot;&gt;Ufficio grafici&lt;/span&gt;" style="text;html=1;strokeColor=none;fillColor=none;align=center;verticalAlign=middle;whiteSpace=wrap;rounded=0;" vertex="1" parent="1">
          <mxGeometry x="640" y="440" width="150" height="20" as="geometry" />
        </mxCell>
        <mxCell id="HuGAQ2az-uX-GAvsGOpm-64" value="PC7" style="text;html=1;strokeColor=none;fillColor=none;align=center;verticalAlign=middle;whiteSpace=wrap;rounded=0;" vertex="1" parent="1">
          <mxGeometry x="655" y="490" width="40" height="20" as="geometry" />
        </mxCell>
        <mxCell id="HuGAQ2az-uX-GAvsGOpm-65" value="PC8" style="text;html=1;strokeColor=none;fillColor=none;align=center;verticalAlign=middle;whiteSpace=wrap;rounded=0;" vertex="1" parent="1">
          <mxGeometry x="695" y="490" width="40" height="20" as="geometry" />
        </mxCell>
        <mxCell id="HuGAQ2az-uX-GAvsGOpm-66" value="PC9" style="text;html=1;strokeColor=none;fillColor=none;align=center;verticalAlign=middle;whiteSpace=wrap;rounded=0;" vertex="1" parent="1">
          <mxGeometry x="735" y="490" width="40" height="20" as="geometry" />
        </mxCell>
        <mxCell id="HuGAQ2az-uX-GAvsGOpm-67" value="PC11" style="text;html=1;strokeColor=none;fillColor=none;align=center;verticalAlign=middle;whiteSpace=wrap;rounded=0;" vertex="1" parent="1">
          <mxGeometry x="730" y="570" width="40" height="20" as="geometry" />
        </mxCell>
        <mxCell id="HuGAQ2az-uX-GAvsGOpm-68" value="PC10" style="text;html=1;strokeColor=none;fillColor=none;align=center;verticalAlign=middle;whiteSpace=wrap;rounded=0;" vertex="1" parent="1">
          <mxGeometry x="670" y="570" width="40" height="20" as="geometry" />
        </mxCell>
        <mxCell id="HuGAQ2az-uX-GAvsGOpm-69" style="edgeStyle=orthogonalEdgeStyle;rounded=0;orthogonalLoop=1;jettySize=auto;html=1;exitX=0.5;exitY=1;exitDx=0;exitDy=0;" edge="1" parent="1" source="HuGAQ2az-uX-GAvsGOpm-65" target="HuGAQ2az-uX-GAvsGOpm-65">
          <mxGeometry relative="1" as="geometry" />
        </mxCell>
        <mxCell id="HuGAQ2az-uX-GAvsGOpm-70" value="STMP1" style="text;html=1;strokeColor=none;fillColor=none;align=center;verticalAlign=middle;whiteSpace=wrap;rounded=0;" vertex="1" parent="1">
          <mxGeometry x="150" y="580" width="40" height="20" as="geometry" />
        </mxCell>
        <mxCell id="HuGAQ2az-uX-GAvsGOpm-76" value="&lt;font style=&quot;font-size: 18px&quot;&gt;Internet&lt;/font&gt;" style="ellipse;shape=cloud;whiteSpace=wrap;html=1;" vertex="1" parent="1">
          <mxGeometry x="340" y="100" width="186" height="110" as="geometry" />
        </mxCell>
        <mxCell id="HuGAQ2az-uX-GAvsGOpm-77" value="" style="shape=cylinder;whiteSpace=wrap;html=1;boundedLbl=1;backgroundOutline=1;" vertex="1" parent="1">
          <mxGeometry x="410" y="270" width="70" height="120" as="geometry" />
        </mxCell>
        <mxCell id="HuGAQ2az-uX-GAvsGOpm-90" value="" style="endArrow=classic;html=1;" edge="1" parent="1">
          <mxGeometry width="50" height="50" relative="1" as="geometry">
            <mxPoint x="445" y="290" as="sourcePoint" />
            <mxPoint x="465" y="290" as="targetPoint" />
          </mxGeometry>
        </mxCell>
        <mxCell id="HuGAQ2az-uX-GAvsGOpm-91" value="" style="endArrow=classic;html=1;" edge="1" parent="1">
          <mxGeometry width="50" height="50" relative="1" as="geometry">
            <mxPoint x="445" y="290.0000000000001" as="sourcePoint" />
            <mxPoint x="445" y="270" as="targetPoint" />
          </mxGeometry>
        </mxCell>
        <mxCell id="HuGAQ2az-uX-GAvsGOpm-93" value="" style="endArrow=classic;html=1;" edge="1" parent="1">
          <mxGeometry width="50" height="50" relative="1" as="geometry">
            <mxPoint x="445" y="290.0000000000001" as="sourcePoint" />
            <mxPoint x="425" y="290" as="targetPoint" />
          </mxGeometry>
        </mxCell>
        <mxCell id="HuGAQ2az-uX-GAvsGOpm-94" value="" style="endArrow=classic;html=1;" edge="1" parent="1">
          <mxGeometry width="50" height="50" relative="1" as="geometry">
            <mxPoint x="445" y="290.0000000000001" as="sourcePoint" />
            <mxPoint x="445" y="310" as="targetPoint" />
          </mxGeometry>
        </mxCell>
        <mxCell id="HuGAQ2az-uX-GAvsGOpm-99" value="Switch 2" style="shape=cube;whiteSpace=wrap;html=1;boundedLbl=1;backgroundOutline=1;darkOpacity=0.05;darkOpacity2=0.1;direction=east;" vertex="1" parent="1">
          <mxGeometry x="678" y="340" width="74" height="30" as="geometry" />
        </mxCell>
        <mxCell id="HuGAQ2az-uX-GAvsGOpm-100" value="Switch 6" style="shape=cube;whiteSpace=wrap;html=1;boundedLbl=1;backgroundOutline=1;darkOpacity=0.05;darkOpacity2=0.1;direction=east;" vertex="1" parent="1">
          <mxGeometry x="678" y="530" width="74" height="30" as="geometry" />
        </mxCell>
        <mxCell id="HuGAQ2az-uX-GAvsGOpm-101" value="Switch 7" style="shape=cube;whiteSpace=wrap;html=1;boundedLbl=1;backgroundOutline=1;darkOpacity=0.05;darkOpacity2=0.1;direction=east;" vertex="1" parent="1">
          <mxGeometry x="673" y="750" width="74" height="30" as="geometry" />
        </mxCell>
        <mxCell id="HuGAQ2az-uX-GAvsGOpm-102" value="Switch 3" style="shape=cube;whiteSpace=wrap;html=1;boundedLbl=1;backgroundOutline=1;darkOpacity=0.05;darkOpacity2=0.1;direction=east;" vertex="1" parent="1">
          <mxGeometry x="98" y="325" width="74" height="30" as="geometry" />
        </mxCell>
        <mxCell id="HuGAQ2az-uX-GAvsGOpm-103" value="&lt;font color=&quot;rgba(0, 0, 0, 0)&quot; face=&quot;monospace&quot;&gt;&lt;span style=&quot;font-size: 0px&quot;&gt;sss&lt;/span&gt;&lt;/font&gt;" style="shape=cube;whiteSpace=wrap;html=1;boundedLbl=1;backgroundOutline=1;darkOpacity=0.05;darkOpacity2=0.1;direction=east;" vertex="1" parent="1">
          <mxGeometry x="98" y="540" width="74" height="30" as="geometry" />
        </mxCell>
        <mxCell id="HuGAQ2az-uX-GAvsGOpm-104" value="&lt;font color=&quot;rgba(0, 0, 0, 0)&quot; face=&quot;monospace&quot;&gt;&lt;span style=&quot;font-size: 0px&quot;&gt;S&lt;/span&gt;&lt;/font&gt;" style="shape=cube;whiteSpace=wrap;html=1;boundedLbl=1;backgroundOutline=1;darkOpacity=0.05;darkOpacity2=0.1;direction=east;" vertex="1" parent="1">
          <mxGeometry x="98" y="760" width="74" height="30" as="geometry" />
        </mxCell>
        <mxCell id="HuGAQ2az-uX-GAvsGOpm-105" value="&lt;span style=&quot;color: rgba(0 , 0 , 0 , 0) ; font-family: monospace ; font-size: 0px&quot;&gt;%3CmxGraphModel%3E%3Croot%3E%3CmxCell%20id%3D%220%22%2F%3E%3CmxCell%20id%3D%221%22%20parent%3D%220%22%2F%3E%3CmxCell%20id%3D%222%22%20value%3D%22%26lt%3Bspan%20style%3D%26quot%3Bcolor%3A%20rgba(0%20%2C%200%20%2C%200%20%2C%200)%20%3B%20font-family%3A%20monospace%20%3B%20font-size%3A%200px%26quot%3B%26gt%3B%253CmxGraphModel%253E%253Croot%253E%253CmxCell%2520id%253D%25220%2522%252F%253E%253CmxCell%2520id%253D%25221%2522%2520parent%253D%25220%2522%252F%253E%253CmxCell%2520id%253D%25222%2522%2520value%253D%2522%2522%2520style%253D%2522shape%253Dcube%253BwhiteSpace%253Dwrap%253Bhtml%253D1%253BboundedLbl%253D1%253BbackgroundOutline%253D1%253BdarkOpacity%253D0.05%253BdarkOpacity2%253D0.1%253Bdirection%253Deast%253B%2522%2520vertex%253D%25221%2522%2520parent%253D%25221%2522%253E%253CmxGeometry%2520x%253D%252298%2522%2520y%253D%2522540%2522%2520width%253D%252274%2522%2520height%253D%252230%2522%2520as%253D%2522geometry%2522%252F%253E%253C%252FmxCell%253E%253C%252Froot%253E%253C%252FmxGraphModel%253E%26lt%3B%2Fspan%26gt%3B%26lt%3Bspan%20style%3D%26quot%3Bcolor%3A%20rgba(0%20%2C%200%20%2C%200%20%2C%200)%20%3B%20font-family%3A%20monospace%20%3B%20font-size%3A%200px%20%3B%20white-space%3A%20nowrap%26quot%3B%26gt%3B%253CmxGraphModel%253E%253Croot%253E%253CmxCell%2520id%253D%25220%2522%252F%253E%253CmxCell%2520id%253D%25221%2522%2520parent%253D%25220%2522%252F%253E%253CmxCell%2520id%253D%25222%2522%2520value%253D%2522%2522%2520style%253D%2522shape%253Dcube%253BwhiteSpace%253Dwrap%253Bhtml%253D1%253BboundedLbl%253D1%253BbackgroundOutline%253D1%253BdarkOpacity%253D0.05%253BdarkOpacity2%253D0.1%253Bdirection%253Deast%253B%2522%2520vertex%253D%25221%2522%2520parent%253D%25221%2522%253E%253CmxGeometry%2520x%253D%252298%2522%2520y%253D%2522540%2522%2520width%253D%252274%2522%2520height%253D%252230%2522%2520as%253D%2522geometry%2522%252F%253E%253C%252FmxCell%253E%253C%252Froot%253E%253C%252FmxGraphModel%253E%26lt%3B%2Fspan%26gt%3B%22%20style%3D%22shape%3Dcube%3BwhiteSpace%3Dwrap%3Bhtml%3D1%3BboundedLbl%3D1%3BbackgroundOutline%3D1%3BdarkOpacity%3D0.05%3BdarkOpacity2%3D0.1%3Bdirection%3Deast%3B%22%20vertex%3D%221%22%20parent%3D%221%22%3E%3CmxGeometry%20x%3D%2298%22%20y%3D%22540%22%20width%3D%2274%22%20height%3D%2230%22%20as%3D%22geometry%22%2F%3E%3C%2FmxCell%3E%3C%2Froot%3E%3C%2FmxGraphModel%3E&lt;/span&gt;" style="text;html=1;align=center;verticalAlign=middle;resizable=0;points=[];autosize=1;" vertex="1" parent="1">
          <mxGeometry x="263" y="381" width="20" height="20" as="geometry" />
        </mxCell>
        <mxCell id="HuGAQ2az-uX-GAvsGOpm-106" value="Switch 4" style="shape=cube;whiteSpace=wrap;html=1;boundedLbl=1;backgroundOutline=1;darkOpacity=0.05;darkOpacity2=0.1;direction=east;" vertex="1" parent="1">
          <mxGeometry x="98" y="540" width="74" height="30" as="geometry" />
        </mxCell>
        <mxCell id="HuGAQ2az-uX-GAvsGOpm-107" value="Switch 5" style="shape=cube;whiteSpace=wrap;html=1;boundedLbl=1;backgroundOutline=1;darkOpacity=0.05;darkOpacity2=0.1;direction=east;" vertex="1" parent="1">
          <mxGeometry x="98" y="760" width="74" height="30" as="geometry" />
        </mxCell>
        <mxCell id="HuGAQ2az-uX-GAvsGOpm-108" value="" style="endArrow=none;html=1;entryX=0.55;entryY=0.95;entryDx=0;entryDy=0;entryPerimeter=0;" edge="1" parent="1" source="HuGAQ2az-uX-GAvsGOpm-77" target="HuGAQ2az-uX-GAvsGOpm-76">
          <mxGeometry width="50" height="50" relative="1" as="geometry">
            <mxPoint x="450" y="260" as="sourcePoint" />
            <mxPoint x="433" y="220" as="targetPoint" />
          </mxGeometry>
        </mxCell>
        <mxCell id="HuGAQ2az-uX-GAvsGOpm-109" value="" style="endArrow=none;html=1;entryX=0.5;entryY=1;entryDx=0;entryDy=0;exitX=0.5;exitY=0;exitDx=0;exitDy=0;exitPerimeter=0;" edge="1" parent="1" source="HuGAQ2az-uX-GAvsGOpm-95" target="HuGAQ2az-uX-GAvsGOpm-77">
          <mxGeometry width="50" height="50" relative="1" as="geometry">
            <mxPoint x="445" y="450" as="sourcePoint" />
            <mxPoint x="470" y="410" as="targetPoint" />
          </mxGeometry>
        </mxCell>
        <mxCell id="HuGAQ2az-uX-GAvsGOpm-110" value="" style="endArrow=none;html=1;entryX=0;entryY=0;entryDx=0;entryDy=20;entryPerimeter=0;exitX=1;exitY=1;exitDx=0;exitDy=0;exitPerimeter=0;" edge="1" parent="1" source="HuGAQ2az-uX-GAvsGOpm-102" target="HuGAQ2az-uX-GAvsGOpm-95">
          <mxGeometry width="50" height="50" relative="1" as="geometry">
            <mxPoint x="290" y="430" as="sourcePoint" />
            <mxPoint x="380" y="480" as="targetPoint" />
            <Array as="points">
              <mxPoint x="280" y="355" />
              <mxPoint x="280" y="480" />
            </Array>
          </mxGeometry>
        </mxCell>
        <mxCell id="HuGAQ2az-uX-GAvsGOpm-113" value="" style="endArrow=none;html=1;entryX=0;entryY=0;entryDx=10;entryDy=30;entryPerimeter=0;exitX=0;exitY=0;exitDx=74;exitDy=20;exitPerimeter=0;" edge="1" parent="1" source="HuGAQ2az-uX-GAvsGOpm-106" target="HuGAQ2az-uX-GAvsGOpm-95">
          <mxGeometry width="50" height="50" relative="1" as="geometry">
            <mxPoint x="280" y="463.2" as="sourcePoint" />
            <mxPoint x="376.404" y="499.99999999999994" as="targetPoint" />
            <Array as="points">
              <mxPoint x="280" y="560" />
              <mxPoint x="280" y="490" />
            </Array>
          </mxGeometry>
        </mxCell>
        <mxCell id="HuGAQ2az-uX-GAvsGOpm-114" value="" style="endArrow=none;html=1;entryX=0;entryY=0;entryDx=20;entryDy=40;entryPerimeter=0;exitX=0;exitY=0;exitDx=74;exitDy=20;exitPerimeter=0;" edge="1" parent="1" source="HuGAQ2az-uX-GAvsGOpm-107" target="HuGAQ2az-uX-GAvsGOpm-95">
          <mxGeometry width="50" height="50" relative="1" as="geometry">
            <mxPoint x="291.6" y="483.2" as="sourcePoint" />
            <mxPoint x="388.004" y="520" as="targetPoint" />
            <Array as="points">
              <mxPoint x="290" y="780" />
              <mxPoint x="290" y="500" />
            </Array>
          </mxGeometry>
        </mxCell>
        <mxCell id="HuGAQ2az-uX-GAvsGOpm-115" value="" style="endArrow=none;html=1;entryX=0;entryY=0;entryDx=20;entryDy=30;entryPerimeter=0;exitX=0;exitY=0;exitDx=94;exitDy=0;exitPerimeter=0;" edge="1" parent="1" source="HuGAQ2az-uX-GAvsGOpm-95" target="HuGAQ2az-uX-GAvsGOpm-99">
          <mxGeometry width="50" height="50" relative="1" as="geometry">
            <mxPoint x="460" y="610" as="sourcePoint" />
            <mxPoint x="510" y="560" as="targetPoint" />
            <Array as="points">
              <mxPoint x="610" y="460" />
              <mxPoint x="610" y="370" />
            </Array>
          </mxGeometry>
        </mxCell>
        <mxCell id="HuGAQ2az-uX-GAvsGOpm-116" value="" style="endArrow=none;html=1;entryX=0;entryY=0;entryDx=0;entryDy=0;entryPerimeter=0;exitX=0;exitY=0;exitDx=94;exitDy=0;exitPerimeter=0;" edge="1" parent="1" target="HuGAQ2az-uX-GAvsGOpm-100">
          <mxGeometry width="50" height="50" relative="1" as="geometry">
            <mxPoint x="492.0000000000002" y="470" as="sourcePoint" />
            <mxPoint x="708" y="380" as="targetPoint" />
            <Array as="points">
              <mxPoint x="610" y="470" />
              <mxPoint x="610" y="530" />
            </Array>
          </mxGeometry>
        </mxCell>
        <mxCell id="HuGAQ2az-uX-GAvsGOpm-117" value="" style="endArrow=none;html=1;entryX=0;entryY=0;entryDx=0;entryDy=0;entryPerimeter=0;exitX=0;exitY=0;exitDx=114;exitDy=20;exitPerimeter=0;" edge="1" parent="1" source="HuGAQ2az-uX-GAvsGOpm-95" target="HuGAQ2az-uX-GAvsGOpm-101">
          <mxGeometry width="50" height="50" relative="1" as="geometry">
            <mxPoint x="400.0000000000002" y="660" as="sourcePoint" />
            <mxPoint x="616" y="570" as="targetPoint" />
            <Array as="points">
              <mxPoint x="600" y="480" />
              <mxPoint x="600" y="750" />
            </Array>
          </mxGeometry>
        </mxCell>
        <mxCell id="HuGAQ2az-uX-GAvsGOpm-118" value="" style="endArrow=none;html=1;entryX=0.5;entryY=1;entryDx=0;entryDy=0;exitX=0.503;exitY=0.004;exitDx=0;exitDy=0;exitPerimeter=0;" edge="1" parent="1" source="HuGAQ2az-uX-GAvsGOpm-102" target="HuGAQ2az-uX-GAvsGOpm-39">
          <mxGeometry width="50" height="50" relative="1" as="geometry">
            <mxPoint x="220" y="355" as="sourcePoint" />
            <mxPoint x="270" y="305" as="targetPoint" />
          </mxGeometry>
        </mxCell>
        <mxCell id="HuGAQ2az-uX-GAvsGOpm-119" value="" style="endArrow=none;html=1;entryX=0.5;entryY=1;entryDx=0;entryDy=0;exitX=0.503;exitY=0.004;exitDx=0;exitDy=0;exitPerimeter=0;" edge="1" parent="1">
          <mxGeometry width="50" height="50" relative="1" as="geometry">
            <mxPoint x="135.0820000000001" y="370.12" as="sourcePoint" />
            <mxPoint x="134.86000000000013" y="355" as="targetPoint" />
          </mxGeometry>
        </mxCell>
        <mxCell id="HuGAQ2az-uX-GAvsGOpm-121" value="" style="endArrow=none;html=1;entryX=0.5;entryY=1;entryDx=0;entryDy=0;" edge="1" parent="1" target="HuGAQ2az-uX-GAvsGOpm-47">
          <mxGeometry width="50" height="50" relative="1" as="geometry">
            <mxPoint x="135" y="540" as="sourcePoint" />
            <mxPoint x="170" y="480" as="targetPoint" />
          </mxGeometry>
        </mxCell>
        <mxCell id="HuGAQ2az-uX-GAvsGOpm-122" value="" style="endArrow=none;html=1;entryX=0;entryY=0;entryDx=20;entryDy=30;entryPerimeter=0;exitX=0.5;exitY=0;exitDx=0;exitDy=0;" edge="1" parent="1" source="HuGAQ2az-uX-GAvsGOpm-48" target="HuGAQ2az-uX-GAvsGOpm-106">
          <mxGeometry width="50" height="50" relative="1" as="geometry">
            <mxPoint x="94.86000000000011" y="580" as="sourcePoint" />
            <mxPoint x="95" y="560" as="targetPoint" />
            <Array as="points" />
          </mxGeometry>
        </mxCell>
        <mxCell id="HuGAQ2az-uX-GAvsGOpm-123" value="" style="endArrow=none;html=1;entryX=0.869;entryY=1.002;entryDx=0;entryDy=0;entryPerimeter=0;exitX=0.5;exitY=0;exitDx=0;exitDy=0;" edge="1" parent="1" source="HuGAQ2az-uX-GAvsGOpm-70" target="HuGAQ2az-uX-GAvsGOpm-106">
          <mxGeometry width="50" height="50" relative="1" as="geometry">
            <mxPoint x="172.0000000000001" y="580" as="sourcePoint" />
            <mxPoint x="185.14" y="560" as="targetPoint" />
          </mxGeometry>
        </mxCell>
        <mxCell id="HuGAQ2az-uX-GAvsGOpm-124" value="" style="endArrow=none;html=1;entryX=0.5;entryY=1;entryDx=0;entryDy=0;exitX=0.493;exitY=0.008;exitDx=0;exitDy=0;exitPerimeter=0;" edge="1" parent="1" source="HuGAQ2az-uX-GAvsGOpm-107" target="HuGAQ2az-uX-GAvsGOpm-43">
          <mxGeometry width="50" height="50" relative="1" as="geometry">
            <mxPoint x="130" y="760" as="sourcePoint" />
            <mxPoint x="180" y="710" as="targetPoint" />
          </mxGeometry>
        </mxCell>
        <mxCell id="HuGAQ2az-uX-GAvsGOpm-125" value="" style="endArrow=none;html=1;exitX=0.511;exitY=1.015;exitDx=0;exitDy=0;exitPerimeter=0;" edge="1" parent="1" source="HuGAQ2az-uX-GAvsGOpm-107" target="HuGAQ2az-uX-GAvsGOpm-44">
          <mxGeometry width="50" height="50" relative="1" as="geometry">
            <mxPoint x="145.37" y="767.5999999999999" as="sourcePoint" />
            <mxPoint x="145" y="750" as="targetPoint" />
          </mxGeometry>
        </mxCell>
        <mxCell id="HuGAQ2az-uX-GAvsGOpm-126" value="" style="endArrow=none;html=1;entryX=0.5;entryY=1;entryDx=0;entryDy=0;exitX=0.494;exitY=0.024;exitDx=0;exitDy=0;exitPerimeter=0;" edge="1" parent="1" source="HuGAQ2az-uX-GAvsGOpm-99" target="HuGAQ2az-uX-GAvsGOpm-51">
          <mxGeometry width="50" height="50" relative="1" as="geometry">
            <mxPoint x="715" y="339" as="sourcePoint" />
            <mxPoint x="760" y="290" as="targetPoint" />
          </mxGeometry>
        </mxCell>
        <mxCell id="HuGAQ2az-uX-GAvsGOpm-127" value="" style="endArrow=none;html=1;entryX=0;entryY=0;entryDx=20;entryDy=30;entryPerimeter=0;exitX=0.5;exitY=0;exitDx=0;exitDy=0;" edge="1" parent="1" source="HuGAQ2az-uX-GAvsGOpm-68" target="HuGAQ2az-uX-GAvsGOpm-100">
          <mxGeometry width="50" height="50" relative="1" as="geometry">
            <mxPoint x="673" y="630" as="sourcePoint" />
            <mxPoint x="723" y="580" as="targetPoint" />
          </mxGeometry>
        </mxCell>
        <mxCell id="HuGAQ2az-uX-GAvsGOpm-128" value="" style="endArrow=none;html=1;entryX=0.892;entryY=0.988;entryDx=0;entryDy=0;entryPerimeter=0;exitX=0.5;exitY=0;exitDx=0;exitDy=0;" edge="1" parent="1" source="HuGAQ2az-uX-GAvsGOpm-67" target="HuGAQ2az-uX-GAvsGOpm-100">
          <mxGeometry width="50" height="50" relative="1" as="geometry">
            <mxPoint x="729" y="570" as="sourcePoint" />
            <mxPoint x="752" y="560" as="targetPoint" />
          </mxGeometry>
        </mxCell>
        <mxCell id="HuGAQ2az-uX-GAvsGOpm-129" value="" style="endArrow=none;html=1;entryX=0;entryY=0;entryDx=20;entryDy=30;entryPerimeter=0;exitX=0.13;exitY=-0.012;exitDx=0;exitDy=0;exitPerimeter=0;" edge="1" parent="1" source="HuGAQ2az-uX-GAvsGOpm-100">
          <mxGeometry width="50" height="50" relative="1" as="geometry">
            <mxPoint x="670" y="520" as="sourcePoint" />
            <mxPoint x="678" y="510" as="targetPoint" />
          </mxGeometry>
        </mxCell>
        <mxCell id="HuGAQ2az-uX-GAvsGOpm-130" value="" style="endArrow=none;html=1;entryX=0.543;entryY=0.971;entryDx=0;entryDy=0;entryPerimeter=0;exitX=0.523;exitY=-0.004;exitDx=0;exitDy=0;exitPerimeter=0;" edge="1" parent="1" source="HuGAQ2az-uX-GAvsGOpm-100" target="HuGAQ2az-uX-GAvsGOpm-65">
          <mxGeometry width="50" height="50" relative="1" as="geometry">
            <mxPoint x="719.8100000000002" y="529.6400000000001" as="sourcePoint" />
            <mxPoint x="710.19" y="510" as="targetPoint" />
          </mxGeometry>
        </mxCell>
        <mxCell id="HuGAQ2az-uX-GAvsGOpm-131" value="" style="endArrow=none;html=1;entryX=0.5;entryY=1;entryDx=0;entryDy=0;exitX=0;exitY=0;exitDx=54;exitDy=0;exitPerimeter=0;" edge="1" parent="1" source="HuGAQ2az-uX-GAvsGOpm-100" target="HuGAQ2az-uX-GAvsGOpm-66">
          <mxGeometry width="50" height="50" relative="1" as="geometry">
            <mxPoint x="726.702" y="539.88" as="sourcePoint" />
            <mxPoint x="726.7199999999998" y="519.42" as="targetPoint" />
          </mxGeometry>
        </mxCell>
        <mxCell id="HuGAQ2az-uX-GAvsGOpm-132" value="" style="endArrow=none;html=1;entryX=0;entryY=0;entryDx=20;entryDy=30;entryPerimeter=0;exitX=0.5;exitY=0;exitDx=0;exitDy=0;" edge="1" parent="1" source="HuGAQ2az-uX-GAvsGOpm-58" target="HuGAQ2az-uX-GAvsGOpm-101">
          <mxGeometry width="50" height="50" relative="1" as="geometry">
            <mxPoint x="640" y="825" as="sourcePoint" />
            <mxPoint x="690" y="775" as="targetPoint" />
          </mxGeometry>
        </mxCell>
        <mxCell id="HuGAQ2az-uX-GAvsGOpm-133" value="" style="endArrow=none;html=1;entryX=0.567;entryY=0.976;entryDx=0;entryDy=0;entryPerimeter=0;exitX=0.5;exitY=0;exitDx=0;exitDy=0;" edge="1" parent="1" source="HuGAQ2az-uX-GAvsGOpm-59" target="HuGAQ2az-uX-GAvsGOpm-101">
          <mxGeometry width="50" height="50" relative="1" as="geometry">
            <mxPoint x="680" y="800" as="sourcePoint" />
            <mxPoint x="703" y="790" as="targetPoint" />
          </mxGeometry>
        </mxCell>
        <mxCell id="HuGAQ2az-uX-GAvsGOpm-136" value="" style="endArrow=none;html=1;entryX=0;entryY=0;entryDx=20;entryDy=30;entryPerimeter=0;exitX=0.5;exitY=0;exitDx=0;exitDy=0;" edge="1" parent="1" source="HuGAQ2az-uX-GAvsGOpm-60">
          <mxGeometry width="50" height="50" relative="1" as="geometry">
            <mxPoint x="724" y="790" as="sourcePoint" />
            <mxPoint x="747" y="780" as="targetPoint" />
          </mxGeometry>
        </mxCell>
        <mxCell id="HuGAQ2az-uX-GAvsGOpm-137" value="" style="endArrow=none;html=1;entryX=0.457;entryY=1.019;entryDx=0;entryDy=0;entryPerimeter=0;exitX=0;exitY=0;exitDx=54.000000000000014;exitDy=0;exitPerimeter=0;" edge="1" parent="1" source="HuGAQ2az-uX-GAvsGOpm-101" target="HuGAQ2az-uX-GAvsGOpm-57">
          <mxGeometry width="50" height="50" relative="1" as="geometry">
            <mxPoint x="725" y="780" as="sourcePoint" />
            <mxPoint x="775" y="730" as="targetPoint" />
          </mxGeometry>
        </mxCell>
        <mxCell id="HuGAQ2az-uX-GAvsGOpm-138" value="" style="endArrow=none;html=1;entryX=0.5;entryY=1;entryDx=0;entryDy=0;exitX=0.582;exitY=0.003;exitDx=0;exitDy=0;exitPerimeter=0;" edge="1" parent="1" source="HuGAQ2az-uX-GAvsGOpm-101" target="HuGAQ2az-uX-GAvsGOpm-56">
          <mxGeometry width="50" height="50" relative="1" as="geometry">
            <mxPoint x="718" y="751" as="sourcePoint" />
            <mxPoint x="778.28" y="740.3799999999999" as="targetPoint" />
          </mxGeometry>
        </mxCell>
        <mxCell id="HuGAQ2az-uX-GAvsGOpm-139" value="" style="endArrow=none;html=1;entryX=0.5;entryY=1;entryDx=0;entryDy=0;exitX=0;exitY=0;exitDx=27.000000000000007;exitDy=0;exitPerimeter=0;" edge="1" parent="1" source="HuGAQ2az-uX-GAvsGOpm-101" target="HuGAQ2az-uX-GAvsGOpm-55">
          <mxGeometry width="50" height="50" relative="1" as="geometry">
            <mxPoint x="727.6959999999999" y="760.93" as="sourcePoint" />
            <mxPoint x="740" y="740" as="targetPoint" />
          </mxGeometry>
        </mxCell>
        <mxCell id="HuGAQ2az-uX-GAvsGOpm-140" value="" style="endArrow=none;html=1;entryX=0.5;entryY=1;entryDx=0;entryDy=0;exitX=0.083;exitY=0.002;exitDx=0;exitDy=0;exitPerimeter=0;" edge="1" parent="1" source="HuGAQ2az-uX-GAvsGOpm-101" target="HuGAQ2az-uX-GAvsGOpm-54">
          <mxGeometry width="50" height="50" relative="1" as="geometry">
            <mxPoint x="642.6959999999999" y="750.93" as="sourcePoint" />
            <mxPoint x="655" y="730" as="targetPoint" />
          </mxGeometry>
        </mxCell>
      </root>
    </mxGraphModel>
  </diagram>
</mxfile>
